# xmcd
#
# Track frame offsets: 
#        150
#        19571
#        35066
#        51735
#        68250
#        86060
#        102155
#        118574
#        139432
#        154007
#        174270
#        197856
#        214774
#
# Disc length: 3104 seconds
#
# Revision: 0
# Processed by: cddbd v1.5.2PL0 Copyright (c) Steve Scherf et al.
# Submitted via: ExactAudioCopy v0.90b4
#
DISCID=b40c1e0d
DTITLE=Andy Aguilera - Cita De Amor
DYEAR=2003
DGENRE=Latin
TTITLE0=Mi Mujer
TTITLE1=Despacio
TTITLE2=Una Chica Especial
TTITLE3=Sucio, Malo Y Traicionero
TTITLE4=Cita De Amor
TTITLE5=Como Olvidarte
TTITLE6=Quédate Cuando Quieras
TTITLE7=Mendigo Por Amor
TTITLE8=Yo Siempre La Amaria
TTITLE9=Dime
TTITLE10=Sin Miedo A Nada
TTITLE11=A Volar Contigo
TTITLE12=Suspirando Por Ti
EXTD=
EXTT0=
EXTT1=
EXTT2=
EXTT3=
EXTT4=
EXTT5=
EXTT6=
EXTT7=
EXTT8=
EXTT9=
EXTT10=
EXTT11=
EXTT12=
PLAYORDER=
